
<svg id="Layer_1" data-name="Layer 1" viewBox="0 0 59.95 102.1" width="55" height="auto" xmlns="http://www.w3.org/2000/svg" style="fill:#00aeef;} ">
   <path d="M329.74,369.93,329.41,472c-.31-5.14-3.16-17.33-20.57-23.81a7.53,7.53,0,0,0-2.1-.63l-2-.14-12.15-.14-1.75-.18a12.92,12.92,0,0,1-3.25-.87c-5.53-2.47-16.87-9.37-17.5-22.67,0,0-3.92-19,17.78-28,1.11-.46,2.84-.78,4.09-1.18l4.25-.24,8.64-.27,1.25-.05a4.62,4.62,0,0,0,1.2-.2C311.87,392.38,328,386.78,329.74,369.93Z" transform="translate(-269.8 -369.93)"/>
</svg>

